<svg width="25" height="25" viewBox="0 0 25 25" fill="none" xmlns="http://www.w3.org/2000/svg">
<path d="M11.5719 18.2938H13.5969V13.625H18.2937V11.6H13.5969V6.70625H11.5719V11.6H6.70625V13.625H11.5719V18.2938ZM12.5 24.4531C10.85 24.4531 9.29844 24.1438 7.84531 23.525C6.39219 22.9063 5.12187 22.0531 4.03437 20.9656C2.94687 19.8781 2.09375 18.6125 1.475 17.1688C0.85625 15.725 0.546875 14.1688 0.546875 12.5C0.546875 10.8313 0.85625 9.27032 1.475 7.81719C2.09375 6.36407 2.94687 5.09844 4.03437 4.02032C5.12187 2.94219 6.3875 2.08907 7.83125 1.46094C9.275 0.832816 10.8313 0.518753 12.5 0.518753C14.1687 0.518753 15.7297 0.832816 17.1828 1.46094C18.6359 2.08907 19.9016 2.94219 20.9797 4.02032C22.0578 5.09844 22.9109 6.36407 23.5391 7.81719C24.1672 9.27032 24.4812 10.8313 24.4812 12.5C24.4812 14.1688 24.1672 15.725 23.5391 17.1688C22.9109 18.6125 22.0578 19.8734 20.9797 20.9516C19.9016 22.0297 18.6359 22.8828 17.1828 23.5109C15.7297 24.1391 14.1687 24.4531 12.5 24.4531Z" fill="#4B4B4B"/>
</svg>
