<svg width="24" height="18" viewBox="0 0 24 18" fill="none" xmlns="http://www.w3.org/2000/svg">
<path d="M0.375 17.95V14.925C0.375 14.225 0.554167 13.5917 0.9125 13.025C1.27083 12.4584 1.775 12.025 2.425 11.725C3.675 11.1917 4.8125 10.8 5.8375 10.55C6.8625 10.3 7.91667 10.175 9 10.175C10.1167 10.175 11.1792 10.2959 12.1875 10.5375C13.1958 10.7792 14.325 11.175 15.575 11.725C16.2083 12.0084 16.7125 12.4334 17.0875 13C17.4625 13.5667 17.65 14.2084 17.65 14.925V17.95H0.375ZM19.425 17.95V14.975C19.425 13.8917 19.1625 12.9792 18.6375 12.2375C18.1125 11.4959 17.4 10.825 16.5 10.225C17.5167 10.375 18.4792 10.5709 19.3875 10.8125C20.2958 11.0542 21.05 11.325 21.65 11.625C22.25 11.9417 22.7292 12.4 23.0875 13C23.4458 13.6 23.625 14.2834 23.625 15.05V17.95H19.425ZM9 8.65002C7.8 8.65002 6.825 8.27502 6.075 7.52502C5.325 6.77502 4.95 5.79169 4.95 4.57502C4.95 3.37502 5.325 2.40002 6.075 1.65002C6.825 0.900024 7.8 0.525024 9 0.525024C10.2 0.525024 11.1792 0.900024 11.9375 1.65002C12.6958 2.40002 13.075 3.37502 13.075 4.57502C13.075 5.79169 12.6958 6.77502 11.9375 7.52502C11.1792 8.27502 10.2 8.65002 9 8.65002ZM14.85 8.65002C14.65 8.65002 14.4458 8.63336 14.2375 8.60003C14.0292 8.56669 13.8083 8.50836 13.575 8.42502C14.0083 7.97502 14.3292 7.42502 14.5375 6.77502C14.7458 6.12502 14.85 5.40002 14.85 4.60002C14.85 3.78336 14.7458 3.06252 14.5375 2.43752C14.3292 1.81252 14.0083 1.25002 13.575 0.750024C13.775 0.683358 13.9833 0.629191 14.2 0.587524C14.4167 0.545858 14.6333 0.525024 14.85 0.525024C16.05 0.525024 17.0292 0.904191 17.7875 1.66252C18.5458 2.42086 18.925 3.39169 18.925 4.57502C18.925 5.77502 18.5458 6.75419 17.7875 7.51252C17.0292 8.27086 16.05 8.65002 14.85 8.65002Z" fill="white"/>
</svg>
