<svg width="23" height="25" viewBox="0 0 23 25" fill="none" xmlns="http://www.w3.org/2000/svg">
<path d="M14.7906 19.8125C14.0219 19.8125 13.375 19.55 12.85 19.025C12.325 18.5 12.0625 17.8531 12.0625 17.0844C12.0625 16.3156 12.325 15.6687 12.85 15.1437C13.375 14.6187 14.0219 14.3562 14.7906 14.3562C15.5594 14.3562 16.2062 14.6187 16.7312 15.1437C17.2563 15.6687 17.5188 16.3156 17.5188 17.0844C17.5188 17.8531 17.2563 18.5 16.7312 19.025C16.2062 19.55 15.5594 19.8125 14.7906 19.8125ZM3.31562 24.4531C2.58437 24.4531 1.96094 24.1953 1.44531 23.6797C0.929688 23.164 0.671875 22.5406 0.671875 21.8094V4.87811C0.671875 4.14686 0.929688 3.51874 1.44531 2.99374C1.96094 2.46874 2.58437 2.20624 3.31562 2.20624H4.89062V0.518738H7.19688V2.20624H15.8031V0.518738H18.1094V2.20624H19.6844C20.4156 2.20624 21.0438 2.46874 21.5688 2.99374C22.0938 3.51874 22.3562 4.14686 22.3562 4.87811V21.8094C22.3562 22.5406 22.0938 23.164 21.5688 23.6797C21.0438 24.1953 20.4156 24.4531 19.6844 24.4531H3.31562ZM3.31562 21.8094H19.6844V9.96874H3.31562V21.8094Z" fill="white"/>
</svg>
