<svg width="24" height="24" viewBox="0 0 24 24" fill="none" xmlns="http://www.w3.org/2000/svg">
<path d="M8.91253 23.5104L8.34378 19.8813C8.10906 19.8091 7.84274 19.6872 7.54482 19.5156C7.24691 19.3441 6.99864 19.1771 6.80003 19.0146L3.41462 20.5854L0.272949 15.0334L3.36045 12.7854C3.34239 12.6771 3.32885 12.5462 3.31982 12.3927C3.3108 12.2393 3.30628 12.1084 3.30628 12C3.30628 11.8917 3.3108 11.7608 3.31982 11.6073C3.32885 11.4538 3.34239 11.3229 3.36045 11.2146L0.272949 8.93961L3.41462 3.44169L6.8542 4.98544C7.03475 4.841 7.26948 4.68752 7.55837 4.52502C7.84726 4.36252 8.10906 4.24516 8.34378 4.17294L8.91253 0.462524H15.0875L15.6563 4.14586C15.891 4.23614 16.1573 4.35801 16.4552 4.51148C16.7532 4.66496 17.0014 4.82294 17.2 4.98544L20.6125 3.44169L23.7271 8.93961L20.6125 11.1604C20.6306 11.2868 20.6486 11.4268 20.6667 11.5802C20.6848 11.7337 20.6938 11.8736 20.6938 12C20.6938 12.1264 20.6848 12.2618 20.6667 12.4063C20.6486 12.5507 20.6306 12.6861 20.6125 12.8125L23.7271 15.0334L20.5854 20.5854L17.1729 19.0146C16.9743 19.1771 16.7351 19.3441 16.4552 19.5156C16.1754 19.6872 15.9091 19.8091 15.6563 19.8813L15.0875 23.5104H8.91253ZM11.9459 15.5209C12.9209 15.5209 13.7514 15.1778 14.4375 14.4917C15.1236 13.8056 15.4667 12.975 15.4667 12C15.4667 11.025 15.1236 10.1945 14.4375 9.50836C13.7514 8.82225 12.9209 8.47919 11.9459 8.47919C10.9709 8.47919 10.1403 8.82225 9.4542 9.50836C8.76809 10.1945 8.42503 11.025 8.42503 12C8.42503 12.975 8.76809 13.8056 9.4542 14.4917C10.1403 15.1778 10.9709 15.5209 11.9459 15.5209Z" fill="white"/>
</svg>
