<svg width="16" height="16" viewBox="0 0 16 16" fill="none" xmlns="http://www.w3.org/2000/svg">
<path fill-rule="evenodd" clip-rule="evenodd" d="M4.26686 1.45498C4.91012 1.40362 5.52077 1.15061 6.01186 0.731982C6.56652 0.259573 7.27129 0.00012207 7.99986 0.00012207C8.72843 0.00012207 9.4332 0.259573 9.98786 0.731982C10.4789 1.15061 11.0896 1.40362 11.7329 1.45498C12.4593 1.51304 13.1413 1.82794 13.6566 2.34325C14.1719 2.85855 14.4868 3.54055 14.5449 4.26698C14.5959 4.90998 14.8489 5.52098 15.2679 6.01198C15.7403 6.56664 15.9997 7.27141 15.9997 7.99998C15.9997 8.72856 15.7403 9.43332 15.2679 9.98798C14.8492 10.4791 14.5962 11.0897 14.5449 11.733C14.4868 12.4594 14.1719 13.1414 13.6566 13.6567C13.1413 14.172 12.4593 14.4869 11.7329 14.545C11.0896 14.5963 10.4789 14.8493 9.98786 15.268C9.4332 15.7404 8.72843 15.9998 7.99986 15.9998C7.27129 15.9998 6.56652 15.7404 6.01186 15.268C5.52077 14.8493 4.91012 14.5963 4.26686 14.545C3.54043 14.4869 2.85843 14.172 2.34313 13.6567C1.82782 13.1414 1.51292 12.4594 1.45486 11.733C1.4035 11.0897 1.15049 10.4791 0.73186 9.98798C0.259451 9.43332 0 8.72856 0 7.99998C0 7.27141 0.259451 6.56664 0.73186 6.01198C1.15049 5.52089 1.4035 4.91024 1.45486 4.26698C1.51292 3.54055 1.82782 2.85855 2.34313 2.34325C2.85843 1.82794 3.54043 1.51304 4.26686 1.45498ZM11.7069 6.70698C11.889 6.51838 11.9898 6.26578 11.9875 6.00358C11.9853 5.74138 11.8801 5.49057 11.6947 5.30516C11.5093 5.11976 11.2585 5.01459 10.9963 5.01231C10.7341 5.01003 10.4815 5.11082 10.2929 5.29298L6.99986 8.58598L5.70686 7.29298C5.51826 7.11082 5.26565 7.01003 5.00346 7.01231C4.74126 7.01459 4.49045 7.11976 4.30504 7.30516C4.11963 7.49057 4.01446 7.74138 4.01219 8.00358C4.00991 8.26578 4.1107 8.51838 4.29286 8.70698L6.29286 10.707C6.48039 10.8945 6.7347 10.9998 6.99986 10.9998C7.26502 10.9998 7.51933 10.8945 7.70686 10.707L11.7069 6.70698Z" fill="white"/>
</svg>
