<svg width="22" height="18" viewBox="0 0 22 18" fill="none" xmlns="http://www.w3.org/2000/svg">
<path d="M2.725 17.625C2.075 17.625 1.52083 17.3958 1.0625 16.9375C0.604167 16.4791 0.375 15.925 0.375 15.275V2.72498C0.375 2.07498 0.604167 1.51664 1.0625 1.04998C1.52083 0.583309 2.075 0.349976 2.725 0.349976H19.275C19.925 0.349976 20.4833 0.583309 20.95 1.04998C21.4167 1.51664 21.65 2.07498 21.65 2.72498V15.275C21.65 15.925 21.4167 16.4791 20.95 16.9375C20.4833 17.3958 19.925 17.625 19.275 17.625H2.725ZM11 10.25L19.275 4.67498V2.72498L11 8.17498L2.725 2.72498V4.67498L11 10.25Z" fill="#7F7F7F"/>
</svg>