<svg width="18" height="18" viewBox="0 0 18 18" fill="none" xmlns="http://www.w3.org/2000/svg">
<path d="M2.93758 17.0209C2.39591 17.0209 1.93411 16.8299 1.55216 16.448C1.17022 16.066 0.979248 15.6042 0.979248 15.0625V2.93754C0.979248 2.39587 1.17022 1.9306 1.55216 1.54171C1.93411 1.15282 2.39591 0.958374 2.93758 0.958374H8.56258V2.93754H2.93758V15.0625H15.0626V9.43754H17.0417V15.0625C17.0417 15.6042 16.8473 16.066 16.4584 16.448C16.0695 16.8299 15.6042 17.0209 15.0626 17.0209H2.93758ZM7.43758 11.9375L6.08342 10.5625L13.7084 2.93754H9.81258V0.958374H17.0417V8.18754H15.0626V4.31254L7.43758 11.9375Z" fill="#505050"/>
</svg>