<svg width="17" height="17" viewBox="0 0 17 17" fill="none" xmlns="http://www.w3.org/2000/svg">
<path d="M7.91554 12.1479H9.19054V9.20834H12.1478V7.93334H9.19054V4.85209H7.91554V7.93334H4.852V9.20834H7.91554V12.1479ZM8.49992 16.026C7.46103 16.026 6.48412 15.8313 5.56919 15.4417C4.65426 15.0521 3.85443 14.5149 3.16971 13.8302C2.48499 13.1455 1.94784 12.3486 1.55825 11.4396C1.16867 10.5306 0.973877 9.5507 0.973877 8.5C0.973877 7.44931 1.16867 6.4665 1.55825 5.55157C1.94784 4.63664 2.48499 3.83976 3.16971 3.16094C3.85443 2.48212 4.65131 1.94497 5.56034 1.54948C6.46936 1.154 7.44922 0.956253 8.49992 0.956253C9.55061 0.956253 10.5334 1.154 11.4484 1.54948C12.3633 1.94497 13.1602 2.48212 13.839 3.16094C14.5178 3.83976 15.055 4.63664 15.4504 5.55157C15.8459 6.4665 16.0437 7.44931 16.0437 8.5C16.0437 9.5507 15.8459 10.5306 15.4504 11.4396C15.055 12.3486 14.5178 13.1425 13.839 13.8214C13.1602 14.5002 12.3633 15.0373 11.4484 15.4328C10.5334 15.8283 9.55061 16.026 8.49992 16.026Z" fill="#4B4B4B"/>
</svg>
