<svg width="17" height="17" viewBox="0 0 17 17" fill="none" xmlns="http://www.w3.org/2000/svg">
<path d="M1.9375 16.375C1.5875 16.375 1.28125 16.2438 1.01875 15.9813C0.75625 15.7188 0.625 15.4125 0.625 15.0625V10.4688H1.9375V15.0625H15.0625V1.89375H1.9375V6.53125H0.625V1.89375C0.625 1.54375 0.75625 1.2375 1.01875 0.975003C1.28125 0.712503 1.5875 0.581253 1.9375 0.581253H15.0625C15.4125 0.581253 15.7187 0.712503 15.9812 0.975003C16.2437 1.2375 16.375 1.54375 16.375 1.89375V15.0625C16.375 15.4125 16.2437 15.7188 15.9812 15.9813C15.7187 16.2438 15.4125 16.375 15.0625 16.375H1.9375ZM7.03437 12.7219L6.05 11.7375L8.63125 9.15625H0.625V7.84375H8.63125L6.05 5.2625L7.03437 4.27813L11.2562 8.5L7.03437 12.7219Z" fill="#4B4B4B"/>
</svg>
