<svg width="18" height="18" viewBox="0 0 18 18" fill="none" xmlns="http://www.w3.org/2000/svg">
<path d="M2.93746 17.0208C2.39579 17.0208 1.93399 16.8299 1.55204 16.4479C1.1701 16.066 0.979126 15.6042 0.979126 15.0625V2.93751C0.979126 2.39584 1.1701 1.93057 1.55204 1.54168C1.93399 1.15279 2.39579 0.958344 2.93746 0.958344H8.56246V2.93751H2.93746V15.0625H15.0625V9.43751H17.0416V15.0625C17.0416 15.6042 16.8472 16.066 16.4583 16.4479C16.0694 16.8299 15.6041 17.0208 15.0625 17.0208H2.93746ZM7.43746 11.9375L6.08329 10.5625L13.7083 2.93751H9.81246V0.958344H17.0416V8.18751H15.0625V4.31251L7.43746 11.9375Z" fill="#505050"/>
</svg>
