<svg width="35" height="34" viewBox="0 0 35 34" fill="none" xmlns="http://www.w3.org/2000/svg">
<path fill-rule="evenodd" clip-rule="evenodd" d="M33.4455 0.218884C32.804 0.638572 32.768 1.01723 33.3263 1.47434C33.9571 1.99091 34.144 1.95377 34.8094 1.17954C35.0753 0.870176 35.0743 0.861583 34.7348 0.508424C34.1643 -0.0852085 33.9752 -0.127621 33.4455 0.218884ZM7.31719 1.03594C3.56628 3.79316 1.0284 7.8305 0.197635 12.3625C-0.0741121 13.8449 -0.0634301 17.8629 0.216151 19.2966C0.635023 21.4455 1.97297 24.5059 3.20466 26.1324C3.80071 26.9193 3.80398 26.9185 5.11501 25.6228L6.03322 24.7154L4.92573 23.6077C4.21175 22.8939 3.85497 22.4369 3.92177 22.3223C4.15164 21.9281 4.61581 21.5208 4.83514 21.5208C5.12213 21.5208 8.11349 24.4507 8.11349 24.7318C8.11349 24.8435 6.89575 26.0987 5.40741 27.521C3.91906 28.9435 2.70133 30.2013 2.70133 30.3163C2.70133 30.4314 2.88135 30.7216 3.1014 30.9612C3.40505 31.292 3.57468 31.3744 3.80484 31.3033C3.97176 31.2518 5.24219 30.0743 6.62799 28.6868C8.01393 27.2992 9.23979 26.1118 9.35216 26.0479C9.50128 25.9634 9.99663 26.3547 11.185 27.4956C12.0807 28.3557 12.8135 29.1284 12.8135 29.2131C12.8135 29.2976 12.5882 29.5792 12.3129 29.839L11.8121 30.3112L10.6934 29.2289C10.078 28.6336 9.48248 28.1681 9.36996 28.1947C9.04481 28.2714 7.26777 30.1822 7.3753 30.3393C7.76198 30.9043 10.771 32.4647 12.7194 33.1105C15.2332 33.944 19.1702 34.2392 21.8051 33.7921C25.7914 33.1155 29.6869 31.2028 32.0523 28.7607C33.6344 27.1271 34.7318 25.6788 34.3874 25.6788C34.3462 25.6788 33.8816 25.8894 33.3548 26.1466C31.8928 26.8607 29.8527 27.56 28.1954 27.9151C26.9969 28.1719 26.2758 28.2351 24.5636 28.2333C21.4355 28.2301 19.3741 27.7475 16.2051 26.2765C14.2601 25.3736 13.7085 25.3509 14.5696 26.2091C14.8572 26.4956 15.0923 26.7938 15.0923 26.8715C15.0923 27.085 14.3237 27.7579 14.0798 27.7579C13.8531 27.7579 12.0098 25.8661 12.0594 25.6844C12.0755 25.6255 12.7645 24.91 13.5904 24.0945C14.4165 23.2788 15.0923 22.5098 15.0923 22.3857C15.0923 22.0939 14.393 21.3822 14.1066 21.3822C13.9854 21.3822 13.1642 22.0828 12.2817 22.9392L10.6771 24.4962L10.1482 23.9814L9.61921 23.4666L11.2164 21.8913C12.0948 21.0249 12.8135 20.243 12.8135 20.154C12.8135 20.0649 12.5922 19.7591 12.3219 19.4743L11.8301 18.9566L10.1477 20.5852C9.22241 21.4809 8.40047 22.2138 8.32114 22.2138C8.14183 22.2138 6.26196 20.3829 6.26196 20.2082C6.26196 20.0233 6.99858 19.3031 7.18772 19.3031C7.27588 19.3031 7.53225 19.4903 7.75742 19.719C7.9826 19.9476 8.22088 20.1348 8.28696 20.1348C8.62479 20.1348 8.5043 19.6043 7.91039 18.4768C6.48614 15.7734 5.78669 12.9431 5.7854 9.8782C5.78412 7.00069 6.40495 4.4651 7.77921 1.73408C8.1377 1.02167 8.40176 0.410433 8.36615 0.375643C8.3304 0.340993 7.8584 0.638017 7.31719 1.03594ZM16.4454 0.597823C14.0879 0.953337 11.713 1.88959 9.68016 3.26494C8.52139 4.04888 8.26759 4.41049 7.90825 5.78944C6.94745 9.47709 7.38427 13.8422 9.04894 17.1895C9.43904 17.9738 9.77075 18.4715 9.90349 18.4715C10.0228 18.4715 13.8002 14.8731 18.2979 10.475C24.3918 4.51597 26.4381 2.43472 26.3287 2.30651C26.0934 2.03069 24.1305 1.28584 22.6514 0.911064C21.1182 0.522701 17.9905 0.364833 16.4454 0.597823ZM28.7271 2.49986C27.7813 3.42323 27.1985 4.1003 27.1985 4.27577C27.1985 4.56295 27.8774 5.30433 28.1402 5.30433C28.4099 5.30433 31.3288 2.30194 31.3288 2.02459C31.3288 1.74961 30.6459 1.00767 30.3928 1.00767C30.3174 1.00767 29.5679 1.6792 28.7271 2.49986ZM30.9989 4.808C30.1621 5.67842 29.4773 6.45335 29.4773 6.52985C29.4773 6.78211 30.2098 7.52197 30.4596 7.52197C30.7538 7.52197 33.75 4.59982 33.75 4.31278C33.75 4.08699 32.8908 3.2253 32.6656 3.2253C32.5858 3.2253 31.8358 3.93744 30.9989 4.808ZM24.0271 7.07373C23.1863 7.89453 22.4984 8.65268 22.4984 8.75858C22.4984 9.00515 23.1788 9.8782 23.3708 9.8782C23.5829 9.8782 26.7712 6.74344 26.7712 6.53498C26.7712 6.28023 26.0454 5.58154 25.7808 5.58154C25.657 5.58154 24.8678 6.25307 24.0271 7.07373ZM26.3083 9.39559C25.4663 10.2625 24.7772 11.0438 24.7772 11.1317C24.7772 11.345 25.6121 12.0958 25.8493 12.0958C26.0737 12.0958 28.9577 9.11922 29.0275 8.81554C29.0883 8.55123 28.3632 7.79557 28.062 7.80929C27.9395 7.81483 27.1503 8.52864 26.3083 9.39559ZM24.0295 16.1013C19.5057 20.5029 15.8044 24.1767 15.8044 24.2654C15.8044 24.6117 18.3 25.6406 20.4845 26.195C21.883 26.55 22.2033 26.5792 24.6348 26.5741C26.8645 26.5694 27.4769 26.5203 28.6173 26.2554C29.3586 26.0831 30.1747 25.8162 30.431 25.6621C30.8869 25.3879 32.0317 23.7437 32.7875 22.2775C33.2685 21.3445 33.9721 19.4151 34.2007 18.4022C34.5052 17.0535 34.4223 13.5189 34.055 12.1873C33.6876 10.8559 32.592 8.17534 32.397 8.13099C32.3187 8.11324 28.5532 11.6999 24.0295 16.1013ZM19.4421 11.5418C18.5382 12.4098 17.7984 13.1913 17.7984 13.2787C17.7984 13.4694 18.5373 14.4399 18.6881 14.4471C18.8817 14.4562 21.9163 11.5206 22.0099 11.2336C22.0777 11.0258 21.9688 10.8228 21.5939 10.4578L21.0859 9.96358L19.4421 11.5418ZM21.6586 13.9526L20.04 15.5322L20.5098 16.1009C20.7681 16.4137 21.0575 16.6697 21.1529 16.6697C21.3462 16.6697 24.4924 13.5121 24.4924 13.3182C24.4924 13.1345 23.6546 12.373 23.4525 12.373C23.3561 12.373 22.5489 13.0838 21.6586 13.9526ZM14.6928 16.1633C13.8159 17.0283 13.0984 17.7957 13.0984 17.8686C13.0984 18.0399 13.9947 18.8873 14.1758 18.8873C14.4543 18.8873 17.3711 15.9041 17.3711 15.6192C17.3711 15.3323 16.6923 14.5907 16.4297 14.5907C16.3514 14.5907 15.5697 15.2984 14.6928 16.1633ZM17.1196 18.3698C16.2396 19.2286 15.5196 20.0271 15.5196 20.1443C15.5196 20.2616 15.729 20.555 15.9848 20.7963L16.4499 21.2351L18.0855 19.6545C18.9851 18.7852 19.7418 17.9769 19.767 17.8582C19.8067 17.6708 19.0097 16.8083 18.7969 16.8083C18.7544 16.8083 17.9995 17.511 17.1196 18.3698ZM5.55752 19.6594L6.04832 20.154L5.58316 20.5603C4.99537 21.0735 4.70952 21.0714 4.19608 20.5499L3.78618 20.1335L4.26872 19.649C4.53406 19.3826 4.82218 19.1645 4.90892 19.1645C4.99566 19.1645 5.28749 19.3871 5.55752 19.6594ZM14.7905 28.6417L15.2567 29.1099L14.8038 29.612C14.5545 29.8882 14.2808 30.1141 14.1952 30.1141C13.9694 30.1141 13.2408 29.4021 13.2408 29.1816C13.2408 28.8832 13.8415 28.1737 14.0942 28.1737C14.2208 28.1737 14.5342 28.3844 14.7905 28.6417Z" fill="#DBBF4A"/>
</svg>
