<svg width="403" height="35" viewBox="0 0 403 35" fill="none" xmlns="http://www.w3.org/2000/svg">
<path fill-rule="evenodd" clip-rule="evenodd" d="M18 13C17.2044 13 16.4413 13.316 15.8787 13.8786C15.3161 14.4413 15 15.2043 15 16C15 16.7956 15.3161 17.5587 15.8787 18.1213C16.4413 18.6839 17.2044 19 18 19C18.7956 19 19.5587 18.6839 20.1213 18.1213C20.6839 17.5587 21 16.7956 21 16C21 15.2043 20.6839 14.4413 20.1213 13.8786C19.5587 13.316 18.7956 13 18 13ZM13.5 16C13.4999 15.2917 13.667 14.5935 13.9876 13.962C14.3083 13.3305 14.7734 12.7837 15.3453 12.3659C15.9172 11.9481 16.5795 11.6711 17.2786 11.5576C17.9777 11.4441 18.6937 11.4971 19.3683 11.7125C20.043 11.9278 20.6574 12.2994 21.1614 12.7969C21.6654 13.2945 22.0448 13.904 22.2689 14.5758C22.4929 15.2477 22.5552 15.9629 22.4507 16.6634C22.3462 17.3638 22.0779 18.0298 21.6675 18.607L25.2803 22.2197C25.4169 22.3612 25.4925 22.5506 25.4908 22.7473C25.489 22.9439 25.4102 23.132 25.2711 23.2711C25.1321 23.4101 24.9439 23.489 24.7473 23.4907C24.5507 23.4924 24.3612 23.4168 24.2197 23.2802L20.6077 19.6682C19.9345 20.1469 19.1425 20.4311 18.3185 20.4896C17.4945 20.548 16.6703 20.3785 15.9362 19.9997C15.2021 19.6208 14.5865 19.0472 14.1568 18.3417C13.7271 17.6362 13.4998 16.826 13.5 16Z" fill="#B3B3B3"/>
</svg>
